<?xml version="1.0" standalone="no"?>
<!DOCTYPE svg PUBLIC "-//W3C//DTD SVG 20010904//EN"
 "http://www.w3.org/TR/2001/REC-SVG-20010904/DTD/svg10.dtd">
<svg version="1.0" xmlns="http://www.w3.org/2000/svg"
 width="346.000000pt" height="346.000000pt" viewBox="0 0 346.000000 346.000000"
 preserveAspectRatio="xMidYMid meet">
<metadata>
Created by potrace 1.11, written by Peter Selinger 2001-2013
</metadata>
<g transform="translate(0.000000,346.000000) scale(0.100000,-0.100000)"
fill="#000000" stroke="none">
<path d="M2284 3447 c-61 -14 -135 -74 -163 -132 -19 -40 -25 -67 -25 -132 -1
-80 -2 -82 -23 -76 -13 3 -30 2 -39 -1 -15 -6 -15 -9 4 -29 l22 -23 -103 0
c-183 -1 -214 -25 -264 -214 -5 -18 -11 -51 -12 -66 -1 -7 -22 -26 -48 -43
-27 -17 -68 -50 -93 -72 -89 -81 -274 -255 -310 -290 -20 -20 -41 -38 -46 -40
-11 -4 -124 -199 -124 -213 0 -4 -18 -34 -40 -66 -22 -33 -44 -70 -49 -82 -5
-13 -29 -34 -54 -46 -53 -26 -107 -83 -108 -115 -2 -36 2 -61 12 -71 5 -6 9
-22 9 -37 0 -42 41 -77 53 -45 7 19 63 25 85 10 10 -7 24 -9 30 -5 25 15 93
117 112 168 18 49 81 168 112 212 7 10 43 51 79 92 79 87 106 121 139 171 18
28 41 44 90 64 85 35 180 87 241 131 28 20 56 33 64 29 23 -9 34 -48 31 -112
-2 -39 3 -73 14 -99 18 -43 20 -167 5 -273 -6 -43 -11 -55 -31 -62 -13 -5 -24
-13 -24 -18 0 -5 -11 -14 -25 -20 -26 -12 -108 -173 -124 -242 -19 -86 5 -230
55 -319 13 -24 24 -49 24 -55 -1 -6 -38 -52 -83 -102 -239 -264 -232 -257
-270 -313 -12 -19 -29 -37 -37 -42 -8 -4 -50 -24 -93 -44 -67 -31 -85 -46
-125 -98 -109 -143 -161 -184 -297 -232 -41 -15 -75 -43 -193 -163 -78 -80
-149 -154 -157 -166 -23 -32 -18 -68 15 -108 84 -101 229 -55 300 96 58 123
159 213 309 275 40 17 77 31 82 31 6 0 -9 -28 -32 -61 l-41 -61 24 -25 c13
-13 34 -25 46 -26 11 0 23 -10 26 -20 4 -16 11 -19 40 -14 29 5 42 0 78 -29
32 -25 53 -34 81 -34 34 0 40 4 53 35 18 44 18 79 0 95 -11 9 -14 27 -10 73 7
89 66 206 137 274 48 46 258 183 280 183 22 0 183 118 258 188 46 44 104 97
129 118 88 77 134 130 157 184 13 30 34 75 47 100 13 25 21 51 19 58 -3 7 2
21 11 30 20 23 66 145 66 177 0 41 39 113 58 109 9 -1 52 -5 94 -8 84 -4 91
-1 121 59 31 64 50 256 33 350 -15 81 -22 130 -20 143 1 6 2 16 3 21 0 5 21
21 45 35 54 32 55 33 64 93 13 103 8 166 -17 203 -49 71 -80 91 -218 145 -40
16 -73 33 -74 39 -3 42 5 114 17 148 15 44 19 104 6 112 -4 3 -19 39 -32 81
-27 87 -84 158 -158 196 -49 25 -149 32 -218 16z m-1290 -1699 c-4 -7 -14 -23
-22 -36 l-15 -23 -14 21 c-14 19 -13 23 3 35 24 18 58 20 48 3z"/>
</g>
</svg>
